<svg width="161" height="44" viewBox="0 0 161 44" fill="none" xmlns="http://www.w3.org/2000/svg">
<g clip-path="url(#clip0_164_1478)">
<path d="M24.6571 4.5071L20.9428 3.51184L17.8127 15.1935L14.9868 4.64722L11.2724 5.64248L14.3257 17.037L6.72082 9.4322L4.00174 12.1513L12.3433 20.4929L1.95521 17.7094L0.959961 21.4237L12.3102 24.465C12.1803 23.9045 12.1115 23.3205 12.1115 22.7204C12.1115 18.4729 15.5548 15.0297 19.8023 15.0297C24.0498 15.0297 27.493 18.4729 27.493 22.7204C27.493 23.3166 27.4251 23.897 27.2968 24.4542L37.6121 27.2182L38.6073 23.5039L27.2119 20.4505L37.6006 17.6668L36.6053 13.9525L25.2104 17.0057L32.8152 9.40098L30.0961 6.6819L21.8703 14.9078L24.6571 4.5071Z" fill="#FAFEF1"/>
<path d="M27.2859 24.4975C26.9675 25.8438 26.2951 27.0533 25.3727 28.0223L32.8456 35.4954L35.5647 32.7763L27.2859 24.4975Z" fill="#FAFEF1"/>
<path d="M25.2972 28.1005C24.3636 29.054 23.1838 29.7656 21.8607 30.1323L24.58 40.2807L28.2942 39.2854L25.2972 28.1005Z" fill="#FAFEF1"/>
<path d="M21.7219 30.1694C21.1081 30.3273 20.4647 30.4111 19.8016 30.4111C19.0912 30.4111 18.4034 30.3148 17.7503 30.1345L15.0286 40.2922L18.7429 41.2874L21.7219 30.1694Z" fill="#FAFEF1"/>
<path d="M17.619 30.0971C16.3161 29.7121 15.1572 28.9915 14.2427 28.0352L6.75133 35.5265L9.47041 38.2456L17.619 30.0971Z" fill="#FAFEF1"/>
<path d="M14.181 27.9689C13.2821 27.0066 12.6273 25.8133 12.3157 24.4877L1.96672 27.2607L2.96196 30.975L14.181 27.9689Z" fill="#FAFEF1"/>
</g>
<path d="M60.9583 12.2401V25.6249L52.3783 12.2401H48.9463V30.7201H52.3783V17.4409L60.9583 30.7201H64.3903V12.2401H60.9583Z" fill="#FAFEF1"/>
<path d="M65.9368 15.6985H69.4744V12.2401H65.9368V15.6985ZM65.9896 30.7201V17.5201H69.4216V30.7201H65.9896Z" fill="#FAFEF1"/>
<path d="M84.188 24.1201C84.188 19.5529 80.9408 17.3881 77.5088 17.3617C74.0504 17.3353 70.856 19.5529 70.856 24.1201C70.856 28.6873 74.0504 30.9049 77.5088 30.8785C80.6504 30.8521 82.8152 29.4001 83.8184 26.9977L81.152 25.8889C80.3336 27.5257 79.04 28.1065 77.5088 28.1329C76.1888 28.1593 74.684 27.5257 74.3672 25.1761H84.1088C84.1616 24.8329 84.188 24.4897 84.188 24.1201ZM77.5088 20.0809C78.8288 20.1073 80.1752 20.8201 80.5976 22.7209H74.42C74.8688 20.7937 76.2152 20.0545 77.5088 20.0809Z" fill="#FAFEF1"/>
<path d="M92.1196 19.9753V17.3617H89.9548V13.8241L86.5228 14.8801V17.3617H84.358V19.9753H86.5228V26.8129C86.5228 29.4001 86.734 30.7201 90.7468 30.7201H91.6708V27.7105H90.7468C90.1132 27.7105 89.9548 27.6049 89.9548 26.8129V19.9753H92.1196Z" fill="#FAFEF1"/>
<path d="M97.2193 27.8425L104.506 20.3977V17.5201H93.5761V20.3977H100.651L93.3649 27.8425V30.7201H104.585V27.8425H97.2193Z" fill="#FAFEF1"/>
<path d="M105.815 26.9977L109.274 26.4697C109.511 27.7897 111.069 28.2913 112.019 28.2913C112.996 28.2913 114.686 28.0801 114.686 26.4961C114.686 23.4073 106.211 27.2617 106.211 21.3481C106.211 17.5465 110.62 17.3353 112.019 17.3353C113.339 17.3353 117.167 17.5465 117.959 20.6089L114.686 21.2953C114.395 19.8961 112.917 19.6321 112.125 19.6321C111.333 19.6321 109.643 19.8169 109.643 21.3481C109.643 24.4105 118.118 20.5033 118.118 26.4961C118.118 30.5353 113.471 30.8785 112.019 30.8785C110.699 30.8785 106.502 30.5353 105.815 26.9977Z" fill="#FAFEF1"/>
<path d="M122.576 24.1201C122.576 27.3409 124.292 28.3177 126.088 28.2913C127.698 28.2649 128.807 27.6049 129.467 25.7569L132.292 27.1297C131.262 29.8225 128.754 30.8521 126.088 30.8785C122.629 30.9049 119.144 28.6873 119.144 24.1201C119.144 19.5529 122.629 17.3353 126.088 17.3617C128.754 17.3881 131.262 18.4177 132.292 21.1105L129.467 22.4833C128.807 20.6353 127.698 19.9753 126.088 19.9489C124.292 19.9225 122.576 20.8993 122.576 24.1201Z" fill="#FAFEF1"/>
<path d="M141.505 17.3089C139.736 17.3089 138.126 18.2329 137.096 20.2129V12.2401H133.664V30.7201H137.096V26.0473C137.096 20.0017 139.604 19.5001 140.528 19.5001C142.006 19.5001 142.218 21.0313 142.218 23.2753V30.7201H145.65V23.2753C145.65 20.4769 145.201 17.3089 141.505 17.3089Z" fill="#FAFEF1"/>
<path d="M160.14 24.1201C160.14 19.5529 156.892 17.3881 153.46 17.3617C150.002 17.3353 146.808 19.5529 146.808 24.1201C146.808 28.6873 150.002 30.9049 153.46 30.8785C156.602 30.8521 158.767 29.4001 159.77 26.9977L157.104 25.8889C156.285 27.5257 154.992 28.1065 153.46 28.1329C152.14 28.1593 150.636 27.5257 150.319 25.1761H160.06C160.113 24.8329 160.14 24.4897 160.14 24.1201ZM153.46 20.0809C154.78 20.1073 156.127 20.8201 156.549 22.7209H150.372C150.82 20.7937 152.167 20.0545 153.46 20.0809Z" fill="#FAFEF1"/>
<defs>
<clipPath id="clip0_164_1478">
<rect width="38.72" height="38.72" fill="white" transform="translate(0.660156 2.64001)"/>
</clipPath>
</defs>
</svg>
