<svg width="148" height="44" viewBox="0 0 148 44" fill="none" xmlns="http://www.w3.org/2000/svg">
<path fill-rule="evenodd" clip-rule="evenodd" d="M17.4932 3.91414C17.0488 3.82273 16.5904 3.82273 16.146 3.91414C15.6322 4.0198 15.1731 4.27699 14.808 4.48145L14.7085 4.53704L2.33616 11.4106C2.30195 11.4296 2.2667 11.449 2.23059 11.4689C1.84415 11.6817 1.35826 11.9494 0.985126 12.3543C0.662523 12.7043 0.418386 13.1192 0.269041 13.5713C0.0963007 14.0941 0.0983217 14.6488 0.099929 15.09C0.100079 15.1312 0.100226 15.1714 0.100226 15.2106V28.7819C0.100226 28.821 0.100079 28.8612 0.099929 28.9025C0.0983217 29.3436 0.0963007 29.8984 0.269041 30.4212C0.418387 30.8732 0.662525 31.2881 0.985126 31.6382C1.35826 32.0431 1.84415 32.3107 2.23059 32.5236C2.26671 32.5434 2.30195 32.5629 2.33616 32.5819L14.7085 39.4554L14.808 39.511C15.1731 39.7154 15.6322 39.9726 16.146 40.0783C16.5904 40.1697 17.0488 40.1697 17.4932 40.0783C18.007 39.9726 18.4662 39.7154 18.8312 39.511L18.9307 39.4554L31.3031 32.5819C31.3182 32.5735 31.3335 32.565 31.349 32.5564C31.3686 32.5456 31.3885 32.5347 31.4086 32.5236C31.7951 32.3107 32.281 32.0431 32.6541 31.6382C32.9767 31.2881 33.2208 30.8732 33.3702 30.4212C33.5429 29.8984 33.5409 29.3436 33.5393 28.9025C33.5391 28.8612 33.539 28.821 33.539 28.7819V15.2106C33.539 15.1714 33.5391 15.1312 33.5393 15.09C33.5409 14.6488 33.5429 14.0941 33.3702 13.5713C33.2208 13.1192 32.9767 12.7043 32.6541 12.3543C32.281 11.9493 31.7951 11.6817 31.4086 11.4689L31.4073 11.4681C31.3716 11.4485 31.3368 11.4293 31.3031 11.4106L18.9307 4.53704L18.8312 4.48145C18.4662 4.27698 18.007 4.0198 17.4932 3.91414ZM16.3324 7.46011C16.5858 7.31935 16.7151 7.24823 16.8116 7.2017L16.8196 7.19787L16.8276 7.2017C16.9241 7.24823 17.0534 7.31935 17.3068 7.46011L28.4243 13.6365L16.8196 20.0835L5.21492 13.6365L16.3324 7.46011ZM3.4441 16.478L15.1476 22.9799L15.1477 35.8741L3.96009 29.6588C3.69266 29.5102 3.55612 29.4336 3.46032 29.3725L3.45223 29.3673L3.45163 29.3578C3.4448 29.2444 3.4441 29.0878 3.4441 28.7819V16.478Z" fill="#FAFEF1"/>
<path d="M48.7553 27.5838H54.0776V30.7201H44.6924V14.0406H48.7553V27.5838Z" fill="#FAFEF1"/>
<path d="M57.8213 16.084C57.1085 16.084 56.5224 15.878 56.063 15.4662C55.6195 15.0385 55.3977 14.5158 55.3977 13.898C55.3977 13.2644 55.6195 12.7417 56.063 12.3299C56.5224 11.9022 57.1085 11.6884 57.8213 11.6884C58.5182 11.6884 59.0885 11.9022 59.532 12.3299C59.9913 12.7417 60.221 13.2644 60.221 13.898C60.221 14.5158 59.9913 15.0385 59.532 15.4662C59.0885 15.878 58.5182 16.084 57.8213 16.084ZM59.8409 17.462V30.7201H55.7779V17.462H59.8409Z" fill="#FAFEF1"/>
<path d="M67.5848 17.272C68.5193 17.272 69.3351 17.462 70.0321 17.8422C70.7449 18.2224 71.2913 18.7213 71.6715 19.3391V17.462H75.7345V30.6964C75.7345 31.916 75.4889 33.0169 74.9979 33.999C74.5227 34.9969 73.7861 35.7889 72.7882 36.375C71.8061 36.9611 70.5785 37.2541 69.1054 37.2541C67.1413 37.2541 65.5493 36.7868 64.3297 35.8523C63.11 34.9336 62.413 33.6822 62.2388 32.0982H66.2542C66.3809 32.6051 66.6819 33.0011 67.1571 33.2862C67.6323 33.5872 68.2184 33.7376 68.9153 33.7376C69.7549 33.7376 70.4201 33.4921 70.9112 33.0011C71.4181 32.5259 71.6715 31.7576 71.6715 30.6964V28.8193C71.2755 29.4371 70.729 29.944 70.0321 30.34C69.3351 30.7201 68.5193 30.9102 67.5848 30.9102C66.4918 30.9102 65.5018 30.633 64.6148 30.0786C63.7277 29.5084 63.0229 28.7084 62.5001 27.6788C61.9933 26.6334 61.7398 25.4296 61.7398 24.0673C61.7398 22.7051 61.9933 21.5092 62.5001 20.4796C63.0229 19.45 63.7277 18.658 64.6148 18.1036C65.5018 17.5492 66.4918 17.272 67.5848 17.272ZM71.6715 24.0911C71.6715 23.0773 71.3864 22.2774 70.8161 21.6913C70.2617 21.1052 69.5806 20.8122 68.7728 20.8122C67.9649 20.8122 67.2759 21.1052 66.7057 21.6913C66.1513 22.2616 65.8741 23.0536 65.8741 24.0673C65.8741 25.0811 66.1513 25.8889 66.7057 26.4908C67.2759 27.0769 67.9649 27.37 68.7728 27.37C69.5806 27.37 70.2617 27.0769 70.8161 26.4908C71.3864 25.9048 71.6715 25.1048 71.6715 24.0911Z" fill="#FAFEF1"/>
<path d="M86.5859 17.3195C88.1065 17.3195 89.3262 17.8264 90.2449 18.8401C91.1637 19.838 91.623 21.2161 91.623 22.9744V30.7201H87.5838V23.5208C87.5838 22.6338 87.3541 21.9448 86.8948 21.4537C86.4354 20.9627 85.8177 20.7172 85.0415 20.7172C84.2653 20.7172 83.6476 20.9627 83.1882 21.4537C82.7289 21.9448 82.4992 22.6338 82.4992 23.5208V30.7201H78.4362V13.1377H82.4992V19.244C82.911 18.658 83.4733 18.1907 84.1861 17.8422C84.8989 17.4937 85.6989 17.3195 86.5859 17.3195Z" fill="#FAFEF1"/>
<path d="M101.598 27.2749V30.7201H99.531C98.0579 30.7201 96.9095 30.3637 96.0858 29.6509C95.2621 28.9223 94.8503 27.7422 94.8503 26.1107V20.836H93.2346V17.462H94.8503V14.2307H98.9133V17.462H101.574V20.836H98.9133V26.1582C98.9133 26.5542 99.0083 26.8393 99.1984 27.0136C99.3885 27.1878 99.7053 27.2749 100.149 27.2749H101.598Z" fill="#FAFEF1"/>
<path d="M107.687 19.3391C108.067 18.7213 108.613 18.2224 109.326 17.8422C110.039 17.462 110.855 17.272 111.773 17.272C112.866 17.272 113.856 17.5492 114.743 18.1036C115.63 18.658 116.327 19.45 116.834 20.4796C117.357 21.5092 117.618 22.7051 117.618 24.0673C117.618 25.4296 117.357 26.6334 116.834 27.6788C116.327 28.7084 115.63 29.5084 114.743 30.0786C113.856 30.633 112.866 30.9102 111.773 30.9102C110.839 30.9102 110.023 30.728 109.326 30.3637C108.629 29.9836 108.083 29.4846 107.687 28.8668V30.7201H103.624V13.1377H107.687V19.3391ZM113.484 24.0673C113.484 23.0536 113.199 22.2616 112.629 21.6913C112.074 21.1052 111.385 20.8122 110.562 20.8122C109.754 20.8122 109.065 21.1052 108.494 21.6913C107.94 22.2774 107.663 23.0773 107.663 24.0911C107.663 25.1048 107.94 25.9048 108.494 26.4908C109.065 27.0769 109.754 27.37 110.562 27.37C111.369 27.37 112.058 27.0769 112.629 26.4908C113.199 25.8889 113.484 25.0811 113.484 24.0673Z" fill="#FAFEF1"/>
<path d="M125.547 30.9102C124.248 30.9102 123.076 30.633 122.031 30.0786C121.001 29.5242 120.185 28.7322 119.584 27.7026C118.997 26.673 118.704 25.4692 118.704 24.0911C118.704 22.7288 119.005 21.5329 119.607 20.5033C120.209 19.4579 121.033 18.658 122.078 18.1036C123.124 17.5492 124.296 17.272 125.595 17.272C126.894 17.272 128.066 17.5492 129.111 18.1036C130.157 18.658 130.98 19.4579 131.582 20.5033C132.184 21.5329 132.485 22.7288 132.485 24.0911C132.485 25.4533 132.176 26.6572 131.559 27.7026C130.957 28.7322 130.125 29.5242 129.064 30.0786C128.018 30.633 126.846 30.9102 125.547 30.9102ZM125.547 27.3937C126.323 27.3937 126.981 27.1086 127.519 26.5384C128.074 25.9681 128.351 25.1524 128.351 24.0911C128.351 23.0298 128.082 22.214 127.543 21.6438C127.02 21.0736 126.371 20.7884 125.595 20.7884C124.803 20.7884 124.145 21.0736 123.623 21.6438C123.1 22.1982 122.839 23.014 122.839 24.0911C122.839 25.1524 123.092 25.9681 123.599 26.5384C124.122 27.1086 124.771 27.3937 125.547 27.3937Z" fill="#FAFEF1"/>
<path d="M142.244 30.7201L139.702 27.0373L137.563 30.7201H133.168L137.539 23.9485L133.049 17.462H137.611L140.153 21.1211L142.291 17.462H146.687L142.244 24.1386L146.806 30.7201H142.244Z" fill="#FAFEF1"/>
</svg>
