<svg width="175" height="44" viewBox="0 0 175 44" fill="none" xmlns="http://www.w3.org/2000/svg">
<path opacity="0.8" d="M32.0098 10.7036C31.6294 10.3233 31.2491 9.94291 30.8687 9.56256C29.7277 8.34543 28.5105 7.1283 26.9891 6.36759C25.2395 5.45474 23.3377 5.68295 21.436 5.68295C18.5453 5.68295 11.3186 5.68295 7.05859 5.68295L9.94928 9.56256C15.1982 9.56256 23.4138 9.56256 27.2173 9.56256C28.8148 9.56256 30.1841 9.86684 31.4773 10.7036C31.7055 10.7797 31.9337 10.7797 32.0098 10.7036Z" fill="#FAFEF1"/>
<path opacity="0.9" d="M35.2043 16.9414C34.8239 16.5611 34.4436 16.1807 34.0632 15.8003C32.9222 14.5832 31.7051 13.3661 30.1836 12.6054C28.434 11.6925 26.5322 11.9207 24.6305 11.9207C22.1201 11.9207 16.1105 11.9207 11.8506 11.9207L14.7413 15.8003C19.9141 15.8003 26.9887 15.8003 30.4879 15.8003C32.0854 15.8003 33.4547 16.1046 34.7479 16.9414C34.9 17.0175 35.0522 17.0175 35.2043 16.9414Z" fill="#FAFEF1"/>
<path d="M38.7799 23.0269C38.3996 22.6465 38.0192 22.2662 37.6389 21.8858C36.4978 20.6687 35.2807 19.4515 33.7593 18.6908C32.0096 17.778 30.1079 18.0062 28.2061 18.0062C25.8479 18.0062 20.6751 18.0062 16.4912 18.0062L19.3819 21.8858C24.4026 21.8858 30.7925 21.8858 33.9875 21.8858C35.585 21.8858 36.9542 22.1901 38.2474 23.0269C38.4756 23.1029 38.6278 23.179 38.7799 23.0269Z" fill="#FAFEF1"/>
<path opacity="0.8" d="M6.75391 33.2966C7.13426 33.6769 7.51461 34.0573 7.89497 34.4376C9.03603 35.6547 10.2532 36.8719 11.7746 37.6326C13.5242 38.5454 15.426 38.3172 17.3277 38.3172H31.7051L28.8144 34.4376C23.5655 34.4376 15.3499 34.4376 11.5464 34.4376C9.94888 34.4376 8.5796 34.1333 7.2864 33.2966C7.05819 33.2205 6.90605 33.2205 6.75391 33.2966Z" fill="#FAFEF1"/>
<path opacity="0.9" d="M3.55859 27.0589C3.93895 27.4392 4.3193 27.8196 4.69965 28.1999C5.84072 29.4171 7.05784 30.6342 8.57926 31.3949C10.3289 32.3078 12.2307 32.0796 14.1324 32.0796H26.9123L24.0216 28.1999C18.8488 28.1999 11.7742 28.1999 8.27498 28.1999C6.67749 28.1999 5.30821 27.8957 4.01501 27.0589C3.86287 26.9828 3.71074 26.9828 3.55859 27.0589Z" fill="#FAFEF1"/>
<path d="M0.0595703 20.8969C0.439924 21.2773 0.820278 21.6576 1.20063 22.038C2.34169 23.2551 3.55883 24.4722 5.08024 25.2329C6.82987 26.1458 8.73163 25.9176 10.6334 25.9176H22.3483L19.4576 22.038C14.4369 22.038 8.047 22.038 4.85203 22.038C3.25454 22.038 1.88527 21.7337 0.592063 20.8969C0.363851 20.8208 0.211712 20.8208 0.0595703 20.8969Z" fill="#FAFEF1"/>
<path d="M47.5195 13.2072V30.8001H51.388V23.5313H58.7554V20.5252H51.388V16.4596H59.8888V13.2072H47.5195Z" fill="#FAFEF1"/>
<path d="M69.5914 23.0632H63.8995C63.916 22.8168 63.9653 22.5375 64.0474 22.2254C64.1459 21.9133 64.302 21.6176 64.5155 21.3384C64.7455 21.0591 65.0412 20.8291 65.4026 20.6484C65.7804 20.4513 66.2486 20.3528 66.8071 20.3528C67.6613 20.3528 68.2937 20.5827 68.7044 21.0427C69.1314 21.5026 69.4271 22.1761 69.5914 23.0632ZM63.8995 25.2808H73.0903C73.156 24.2952 73.0738 23.3506 72.8439 22.4472C72.6139 21.5437 72.2361 20.7388 71.7104 20.0324C71.2012 19.3261 70.5441 18.7676 69.7392 18.3569C68.9343 17.9298 67.9898 17.7163 66.9056 17.7163C65.9365 17.7163 65.0494 17.8888 64.2445 18.2337C63.456 18.5787 62.7743 19.055 62.1994 19.6628C61.6245 20.2542 61.1809 20.9605 60.8688 21.7819C60.5567 22.6032 60.4007 23.4902 60.4007 24.443C60.4007 25.4286 60.5485 26.3321 60.8442 27.1534C61.1563 27.9747 61.5916 28.6811 62.1501 29.2724C62.7086 29.8638 63.3903 30.3237 64.1952 30.6523C65.0001 30.9644 65.9036 31.1204 66.9056 31.1204C68.3512 31.1204 69.5832 30.7919 70.6016 30.1348C71.6201 29.4778 72.3757 28.3854 72.8685 26.8577H69.7885C69.6735 27.252 69.3614 27.6298 68.8522 27.9912C68.343 28.3361 67.7352 28.5086 67.0288 28.5086C66.0432 28.5086 65.2876 28.254 64.7619 27.7448C64.2363 27.2355 63.9488 26.4142 63.8995 25.2808Z" fill="#FAFEF1"/>
<path d="M74.2784 21.979C74.3277 21.1577 74.533 20.476 74.8944 19.9339C75.2558 19.3918 75.7157 18.9565 76.2742 18.628C76.8327 18.2994 77.4569 18.0694 78.1469 17.938C78.8532 17.7902 79.5596 17.7163 80.2659 17.7163C80.9065 17.7163 81.5554 17.7656 82.2125 17.8641C82.8695 17.9462 83.4691 18.1187 84.0112 18.3816C84.5533 18.6444 84.9968 19.014 85.3417 19.4904C85.6867 19.9503 85.8592 20.5663 85.8592 21.3384V27.9665C85.8592 28.5415 85.892 29.0917 85.9577 29.6174C86.0234 30.1431 86.1384 30.5373 86.3027 30.8001H82.7545C82.6888 30.603 82.6313 30.4059 82.5821 30.2088C82.5492 29.9952 82.5246 29.7817 82.5081 29.5681C81.9496 30.1431 81.2926 30.5455 80.5369 30.7755C79.7813 31.0054 79.0093 31.1204 78.2208 31.1204C77.613 31.1204 77.0463 31.0465 76.5206 30.8987C75.995 30.7508 75.535 30.5209 75.1408 30.2088C74.7465 29.8966 74.4344 29.5024 74.2045 29.026C73.9909 28.5497 73.8841 27.9829 73.8841 27.3259C73.8841 26.6031 74.0073 26.0117 74.2537 25.5518C74.5166 25.0754 74.8451 24.6976 75.2393 24.4184C75.65 24.1391 76.11 23.9338 76.6192 23.8024C77.1448 23.6545 77.6705 23.5395 78.1961 23.4574C78.7218 23.3753 79.2392 23.3096 79.7485 23.2603C80.2577 23.211 80.7094 23.1371 81.1037 23.0385C81.4979 22.94 81.81 22.8003 82.04 22.6196C82.27 22.4225 82.3767 22.1433 82.3603 21.7819C82.3603 21.4041 82.2946 21.1084 82.1632 20.8948C82.0482 20.6649 81.8839 20.4924 81.6704 20.3774C81.4733 20.246 81.2351 20.1638 80.9558 20.131C80.693 20.0817 80.4055 20.0571 80.0934 20.0571C79.4035 20.0571 78.8614 20.2049 78.4672 20.5006C78.0729 20.7963 77.843 21.2891 77.7773 21.979H74.2784ZM82.3603 24.5662C82.2125 24.6976 82.0236 24.8044 81.7936 24.8865C81.58 24.9522 81.3418 25.0097 81.079 25.059C80.8326 25.1083 80.5698 25.1493 80.2905 25.1822C80.0113 25.215 79.732 25.2561 79.4528 25.3054C79.19 25.3547 78.9271 25.4204 78.6643 25.5025C78.4179 25.5846 78.1961 25.6996 77.999 25.8475C77.8183 25.9789 77.6705 26.1514 77.5555 26.3649C77.4405 26.5785 77.383 26.8495 77.383 27.178C77.383 27.4901 77.4405 27.753 77.5555 27.9665C77.6705 28.1801 77.8265 28.3525 78.0237 28.484C78.2208 28.5989 78.4508 28.6811 78.7136 28.7304C78.9764 28.7796 79.2474 28.8043 79.5267 28.8043C80.2166 28.8043 80.7505 28.6893 81.1283 28.4593C81.5061 28.2293 81.7854 27.9583 81.9661 27.6462C82.1468 27.3177 82.2535 26.9891 82.2864 26.6606C82.3357 26.3321 82.3603 26.0692 82.3603 25.8721V24.5662Z" fill="#FAFEF1"/>
<path d="M92.271 18.0612V14.242H88.7721V18.0612H86.6531V20.402H88.7721V27.9172C88.7721 28.5579 88.8789 29.0753 89.0924 29.4696C89.306 29.8638 89.5934 30.1677 89.9548 30.3812C90.3326 30.5948 90.7597 30.7344 91.2361 30.8001C91.7289 30.8822 92.2463 30.9233 92.7884 30.9233C93.1334 30.9233 93.4865 30.9151 93.8479 30.8987C94.2093 30.8822 94.5379 30.8494 94.8335 30.8001V28.0897C94.6693 28.1226 94.4968 28.1472 94.3161 28.1636C94.1354 28.1801 93.9465 28.1883 93.7494 28.1883C93.158 28.1883 92.7638 28.0897 92.5667 27.8926C92.3695 27.6955 92.271 27.3012 92.271 26.7099V20.402H94.8335V18.0612H92.271Z" fill="#FAFEF1"/>
<path d="M95.7591 13.2072V30.8001H99.258V24.1227C99.258 22.825 99.4715 21.8969 99.8986 21.3384C100.326 20.7634 101.016 20.476 101.968 20.476C102.806 20.476 103.389 20.7388 103.718 21.2644C104.046 21.7737 104.211 22.5539 104.211 23.6052V30.8001H107.709V22.9646C107.709 22.1761 107.636 21.4616 107.488 20.8209C107.356 20.1638 107.118 19.6136 106.773 19.17C106.428 18.7101 105.952 18.3569 105.344 18.1105C104.753 17.8477 103.989 17.7163 103.053 17.7163C102.395 17.7163 101.722 17.8888 101.032 18.2337C100.342 18.5622 99.7754 19.0961 99.3319 19.8353H99.258V13.2072H95.7591Z" fill="#FAFEF1"/>
<path d="M118.201 23.0632H112.509C112.525 22.8168 112.574 22.5375 112.657 22.2254C112.755 21.9133 112.911 21.6176 113.125 21.3384C113.355 21.0591 113.65 20.8291 114.012 20.6484C114.39 20.4513 114.858 20.3528 115.416 20.3528C116.27 20.3528 116.903 20.5827 117.313 21.0427C117.741 21.5026 118.036 22.1761 118.201 23.0632ZM112.509 25.2808H121.699C121.765 24.2952 121.683 23.3506 121.453 22.4472C121.223 21.5437 120.845 20.7388 120.32 20.0324C119.81 19.3261 119.153 18.7676 118.348 18.3569C117.543 17.9298 116.599 17.7163 115.515 17.7163C114.546 17.7163 113.659 17.8888 112.854 18.2337C112.065 18.5787 111.383 19.055 110.809 19.6628C110.234 20.2542 109.79 20.9605 109.478 21.7819C109.166 22.6032 109.01 23.4902 109.01 24.443C109.01 25.4286 109.158 26.3321 109.453 27.1534C109.765 27.9747 110.201 28.6811 110.759 29.2724C111.318 29.8638 111.999 30.3237 112.804 30.6523C113.609 30.9644 114.513 31.1204 115.515 31.1204C116.96 31.1204 118.192 30.7919 119.211 30.1348C120.229 29.4778 120.985 28.3854 121.478 26.8577H118.398C118.283 27.252 117.971 27.6298 117.461 27.9912C116.952 28.3361 116.344 28.5086 115.638 28.5086C114.652 28.5086 113.897 28.254 113.371 27.7448C112.845 27.2355 112.558 26.4142 112.509 25.2808Z" fill="#FAFEF1"/>
<path d="M123.035 18.0612V30.8001H126.534V25.059C126.534 24.4841 126.592 23.9502 126.707 23.4574C126.822 22.9646 127.011 22.5375 127.273 22.1761C127.553 21.7983 127.914 21.5026 128.358 21.2891C128.801 21.0755 129.343 20.9688 129.984 20.9688C130.197 20.9688 130.419 20.9852 130.649 21.018C130.879 21.0345 131.076 21.0591 131.24 21.092V17.8395C130.961 17.7573 130.707 17.7163 130.477 17.7163C130.033 17.7163 129.606 17.782 129.195 17.9134C128.785 18.0448 128.399 18.2337 128.037 18.4801C127.676 18.7101 127.356 18.9976 127.076 19.3425C126.797 19.671 126.575 20.0324 126.411 20.4267H126.362V18.0612H123.035Z" fill="#FAFEF1"/>
<path d="M136.111 27.5476V16.4596H138.871C139.824 16.4596 140.62 16.5993 141.261 16.8785C141.918 17.1413 142.444 17.5274 142.838 18.0366C143.232 18.5458 143.511 19.1618 143.676 19.8846C143.856 20.5909 143.947 21.3876 143.947 22.2747C143.947 23.2438 143.823 24.0652 143.577 24.7387C143.331 25.4122 143.002 25.9625 142.591 26.3896C142.181 26.8002 141.713 27.0959 141.187 27.2766C140.661 27.4573 140.119 27.5476 139.561 27.5476H136.111ZM132.243 13.2072V30.8001H139.832C141.179 30.8001 142.345 30.5784 143.331 30.1348C144.333 29.6749 145.162 29.0507 145.819 28.2622C146.493 27.4737 146.994 26.5374 147.322 25.4532C147.651 24.3691 147.815 23.1864 147.815 21.9051C147.815 20.4431 147.61 19.17 147.199 18.0859C146.805 17.0017 146.246 16.0982 145.524 15.3755C144.817 14.6527 143.971 14.1106 142.986 13.7492C142.017 13.3878 140.965 13.2072 139.832 13.2072H132.243Z" fill="#FAFEF1"/>
<path d="M157.972 23.0632H152.28C152.297 22.8168 152.346 22.5375 152.428 22.2254C152.527 21.9133 152.683 21.6176 152.896 21.3384C153.126 21.0591 153.422 20.8291 153.783 20.6484C154.161 20.4513 154.629 20.3528 155.188 20.3528C156.042 20.3528 156.674 20.5827 157.085 21.0427C157.512 21.5026 157.808 22.1761 157.972 23.0632ZM152.28 25.2808H161.471C161.537 24.2952 161.454 23.3506 161.224 22.4472C160.994 21.5437 160.617 20.7388 160.091 20.0324C159.582 19.3261 158.925 18.7676 158.12 18.3569C157.315 17.9298 156.37 17.7163 155.286 17.7163C154.317 17.7163 153.43 17.8888 152.625 18.2337C151.837 18.5787 151.155 19.055 150.58 19.6628C150.005 20.2542 149.562 20.9605 149.249 21.7819C148.937 22.6032 148.781 23.4902 148.781 24.443C148.781 25.4286 148.929 26.3321 149.225 27.1534C149.537 27.9747 149.972 28.6811 150.531 29.2724C151.089 29.8638 151.771 30.3237 152.576 30.6523C153.381 30.9644 154.284 31.1204 155.286 31.1204C156.732 31.1204 157.964 30.7919 158.982 30.1348C160.001 29.4778 160.756 28.3854 161.249 26.8577H158.169C158.054 27.252 157.742 27.6298 157.233 27.9912C156.724 28.3361 156.116 28.5086 155.409 28.5086C154.424 28.5086 153.668 28.254 153.143 27.7448C152.617 27.2355 152.329 26.4142 152.28 25.2808Z" fill="#FAFEF1"/>
<path d="M169.854 30.8001L174.166 18.0612H170.692L168.006 26.7592H167.957L165.271 18.0612H161.599L165.961 30.8001H169.854Z" fill="#FAFEF1"/>
</svg>
