<svg width="174" height="44" viewBox="0 0 174 44" fill="none" xmlns="http://www.w3.org/2000/svg">
<path d="M27.0773 2.64001H12.2424L0.299805 14.5826V29.4174L12.2424 41.36H27.0773L39.0198 29.4174V14.5826L27.0773 2.64001ZM14.295 29.6041L6.6443 21.9533L14.295 14.3027C17.1873 11.4103 21.9457 11.4103 24.838 14.3027L32.4887 21.9533L24.838 29.6041C21.9457 32.4964 17.2806 32.4964 14.295 29.6041Z" fill="#FAFEF1"/>
<path d="M56.0386 31.0113C58.4146 31.0113 60.3682 29.7969 60.9754 27.9753V30.8001H64.4866V23.6721C64.4866 22.0617 63.2194 20.6889 61.5034 20.6889H56.4874V23.6721H60.0514C60.5002 23.6721 60.7906 23.9625 60.7906 24.4113C60.7906 26.1273 58.5202 27.7905 56.2234 27.7905C53.161 27.7905 50.7322 25.3881 50.7322 21.5601C50.7322 17.7321 53.161 15.5145 56.3026 15.5145C58.6786 15.5145 60.3154 16.8081 60.6058 18.7881H64.5394C64.3018 14.8281 60.9754 12.1089 56.329 12.1089C51.445 12.1089 46.957 15.2505 46.957 21.5601C46.957 27.8697 51.313 31.0113 56.0386 31.0113Z" fill="#FAFEF1"/>
<path d="M65.9939 30.8001H69.6635V11.7129H65.9939V30.8001Z" fill="#FAFEF1"/>
<path d="M77.5792 31.0113C81.6712 31.0113 84.6016 28.1073 84.6016 24.1473C84.6016 20.1873 81.6712 17.2833 77.5792 17.2833C73.4872 17.2833 70.5568 20.1873 70.5568 24.1473C70.5568 28.1073 73.4872 31.0113 77.5792 31.0113ZM77.5792 27.8433C75.5992 27.8433 74.2528 26.3385 74.2528 24.1473C74.2528 21.9297 75.5992 20.4249 77.5792 20.4249C79.5592 20.4249 80.9056 21.9297 80.9056 24.1473C80.9056 26.3385 79.5592 27.8433 77.5792 27.8433Z" fill="#FAFEF1"/>
<path d="M92.8128 31.0113C96.7464 31.0113 99.096 28.2921 99.096 24.1473C99.096 20.0025 96.7464 17.2833 92.8656 17.2833C91.2024 17.2833 89.9088 17.9169 89.1696 18.8937V11.7129H85.5V30.8001H89.1696V29.3481C89.9088 30.3777 91.2816 31.0113 92.8128 31.0113ZM92.232 27.8433C90.252 27.8433 88.9584 26.3649 88.9584 24.1473C88.9584 21.9033 90.252 20.4249 92.232 20.4249C94.1592 20.4249 95.4792 21.9033 95.4792 24.1473C95.4792 26.3649 94.1592 27.8433 92.232 27.8433Z" fill="#FAFEF1"/>
<path d="M105.239 17.2833C101.596 17.2833 99.4307 19.4217 99.2723 22.0881H102.546C102.599 20.9793 103.417 19.9761 105.028 19.9761C106.532 19.9761 107.404 20.7417 107.404 21.8505C107.404 22.4049 107.06 22.8273 106.4 22.8273H104.156C101.252 22.8273 99.2987 24.4113 99.2987 27.0249C99.2987 29.2953 101.068 31.0113 103.655 31.0113C105.476 31.0113 106.955 30.1929 107.404 28.9521V30.8001H111.047V22.2465C111.047 19.2369 108.592 17.2833 105.239 17.2833ZM104.579 28.3449C103.549 28.3449 102.81 27.7377 102.81 26.8665C102.81 25.8369 103.602 25.1505 104.711 25.1505H107.404V25.3353C107.404 27.0249 106.374 28.3449 104.579 28.3449Z" fill="#FAFEF1"/>
<path d="M112.457 30.8001H116.126V11.7129H112.457V30.8001Z" fill="#FAFEF1"/>
<path d="M118.076 30.8001H125.626C129.533 30.8001 132.226 28.7937 132.226 25.2825C132.226 22.8537 130.801 21.3753 129.111 20.7153C130.193 20.1345 131.276 18.8145 131.276 17.0721C131.276 13.9833 128.768 12.3201 125.415 12.3201H118.076V30.8001ZM121.983 19.3689V15.4617H125.045C126.814 15.4617 127.606 16.1745 127.606 17.4153C127.606 18.6561 126.814 19.3689 125.125 19.3689H121.983ZM121.983 27.3681V22.7217H125.283C127.474 22.7217 128.451 23.5665 128.451 25.0713C128.451 26.5761 127.474 27.3681 125.283 27.3681H121.983Z" fill="#FAFEF1"/>
<path d="M138.61 17.2833C134.967 17.2833 132.802 19.4217 132.644 22.0881H135.917C135.97 20.9793 136.788 19.9761 138.399 19.9761C139.904 19.9761 140.775 20.7417 140.775 21.8505C140.775 22.4049 140.432 22.8273 139.772 22.8273H137.528C134.624 22.8273 132.67 24.4113 132.67 27.0249C132.67 29.2953 134.439 31.0113 137.026 31.0113C138.848 31.0113 140.326 30.1929 140.775 28.9521V30.8001H144.418V22.2465C144.418 19.2369 141.963 17.2833 138.61 17.2833ZM137.95 28.3449C136.92 28.3449 136.181 27.7377 136.181 26.8665C136.181 25.8369 136.973 25.1505 138.082 25.1505H140.775V25.3353C140.775 27.0249 139.745 28.3449 137.95 28.3449Z" fill="#FAFEF1"/>
<path d="M145.617 30.8001H149.313V23.5137C149.313 21.7977 150.448 20.5569 152.059 20.5569C153.59 20.5569 154.619 21.7185 154.619 23.3289V30.8001H158.315V22.5105C158.315 19.4481 156.362 17.2833 153.352 17.2833C151.531 17.2833 150.052 18.0489 149.313 19.3425V17.4945H145.617V30.8001Z" fill="#FAFEF1"/>
<path d="M168.849 30.8001H173.284L167.556 22.7217L172.862 17.4945H168.216L163.596 22.0353V11.7129H159.9V30.8001H163.596V26.6289L165.074 25.1769L168.849 30.8001Z" fill="#FAFEF1"/>
</svg>
