<svg width="151" height="44" viewBox="0 0 151 44" fill="none" xmlns="http://www.w3.org/2000/svg">
<path fill-rule="evenodd" clip-rule="evenodd" d="M19.86 41.36C30.5522 41.36 39.22 32.6922 39.22 22C39.22 11.3078 30.5522 2.64001 19.86 2.64001C9.16775 2.64001 0.5 11.3078 0.5 22C0.5 32.6922 9.16775 41.36 19.86 41.36ZM25.8996 11.6587C26.1936 10.6145 25.1802 9.99695 24.2547 10.6563L11.3349 19.8603C10.3312 20.5754 10.4891 22 11.5721 22H14.9742V21.9737H21.6048L16.2021 23.88L13.8204 32.3413C13.5264 33.3856 14.5397 34.0031 15.4653 33.3437L28.3851 24.1398C29.3888 23.4247 29.2308 22 28.1479 22H22.9887L25.8996 11.6587Z" fill="#FAFEF1"/>
<path d="M49.2344 30.7201V27.6577H51.6632V15.3025H49.2344V12.2401H58.7384C59.8648 12.2401 60.8416 12.4337 61.6688 12.8209C62.5136 13.1905 63.1648 13.7273 63.6224 14.4313C64.0976 15.1177 64.3352 15.9449 64.3352 16.9129V17.1769C64.3352 18.0217 64.1768 18.7169 63.86 19.2625C63.5432 19.7905 63.1648 20.2041 62.7248 20.5033C62.3024 20.7849 61.8976 20.9873 61.5104 21.1105V21.5857C61.8976 21.6913 62.32 21.8937 62.7776 22.1929C63.2352 22.4745 63.6224 22.8881 63.9392 23.4337C64.2736 23.9793 64.4408 24.6921 64.4408 25.5721V25.8361C64.4408 26.8569 64.2032 27.7369 63.728 28.4761C63.2528 29.1977 62.5928 29.7521 61.748 30.1393C60.9208 30.5265 59.9528 30.7201 58.844 30.7201H49.2344ZM55.148 27.5521H58.4216C59.1784 27.5521 59.7856 27.3673 60.2432 26.9977C60.7184 26.6281 60.956 26.1001 60.956 25.4137V25.1497C60.956 24.4633 60.7272 23.9353 60.2696 23.5657C59.812 23.1961 59.196 23.0113 58.4216 23.0113H55.148V27.5521ZM55.148 19.8433H58.3688C59.0904 19.8433 59.68 19.6585 60.1376 19.2889C60.6128 18.9193 60.8504 18.4089 60.8504 17.7577V17.4937C60.8504 16.8249 60.6216 16.3145 60.164 15.9625C59.7064 15.5929 59.108 15.4081 58.3688 15.4081H55.148V19.8433Z" fill="#FAFEF1"/>
<path d="M72.3096 31.0897C71.0072 31.0897 69.8368 30.8257 68.7984 30.2977C67.76 29.7697 66.9416 29.0041 66.3432 28.0009C65.7448 26.9977 65.4456 25.7921 65.4456 24.3841V23.9617C65.4456 22.5537 65.7448 21.3481 66.3432 20.3449C66.9416 19.3417 67.76 18.5761 68.7984 18.0481C69.8368 17.5201 71.0072 17.2561 72.3096 17.2561C73.612 17.2561 74.7824 17.5201 75.8208 18.0481C76.8592 18.5761 77.6776 19.3417 78.276 20.3449C78.8744 21.3481 79.1736 22.5537 79.1736 23.9617V24.3841C79.1736 25.7921 78.8744 26.9977 78.276 28.0009C77.6776 29.0041 76.8592 29.7697 75.8208 30.2977C74.7824 30.8257 73.612 31.0897 72.3096 31.0897ZM72.3096 28.1329C73.3304 28.1329 74.1752 27.8073 74.844 27.1561C75.5128 26.4873 75.8472 25.5369 75.8472 24.3049V24.0409C75.8472 22.8089 75.5128 21.8673 74.844 21.2161C74.1928 20.5473 73.348 20.2129 72.3096 20.2129C71.2888 20.2129 70.444 20.5473 69.7752 21.2161C69.1064 21.8673 68.772 22.8089 68.772 24.0409V24.3049C68.772 25.5369 69.1064 26.4873 69.7752 27.1561C70.444 27.8073 71.2888 28.1329 72.3096 28.1329Z" fill="#FAFEF1"/>
<path d="M80.9241 30.7201V12.2401H84.2505V30.7201H80.9241Z" fill="#FAFEF1"/>
<path d="M91.6326 30.7201C90.7702 30.7201 90.0662 30.4561 89.5206 29.9281C88.9926 29.3825 88.7286 28.6609 88.7286 27.7633V20.3713H85.455V17.6257H88.7286V13.5601H92.055V17.6257H95.6454V20.3713H92.055V27.1825C92.055 27.7105 92.3014 27.9745 92.7942 27.9745H95.3286V30.7201H91.6326Z" fill="#FAFEF1"/>
<path d="M102.775 31.0897C101.068 31.0897 99.6684 30.7201 98.5772 29.9809C97.486 29.2417 96.826 28.1857 96.5972 26.8129L99.6596 26.0209C99.7828 26.6369 99.9852 27.1209 100.267 27.4729C100.566 27.8249 100.927 28.0801 101.349 28.2385C101.789 28.3793 102.264 28.4497 102.775 28.4497C103.549 28.4497 104.121 28.3177 104.491 28.0537C104.86 27.7721 105.045 27.4289 105.045 27.0241C105.045 26.6193 104.869 26.3113 104.517 26.1001C104.165 25.8713 103.602 25.6865 102.828 25.5457L102.088 25.4137C101.173 25.2377 100.337 25.0001 99.5804 24.7009C98.8236 24.3841 98.2164 23.9529 97.7588 23.4073C97.3012 22.8617 97.0724 22.1577 97.0724 21.2953C97.0724 19.9929 97.5476 18.9985 98.498 18.3121C99.4484 17.6081 100.698 17.2561 102.247 17.2561C103.708 17.2561 104.922 17.5817 105.89 18.2329C106.858 18.8841 107.492 19.7377 107.791 20.7937L104.702 21.7441C104.561 21.0753 104.271 20.6001 103.831 20.3185C103.408 20.0369 102.88 19.8961 102.247 19.8961C101.613 19.8961 101.129 20.0105 100.795 20.2393C100.46 20.4505 100.293 20.7497 100.293 21.1369C100.293 21.5593 100.469 21.8761 100.821 22.0873C101.173 22.2809 101.648 22.4305 102.247 22.5361L102.986 22.6681C103.972 22.8441 104.86 23.0817 105.652 23.3809C106.462 23.6625 107.096 24.0761 107.553 24.6217C108.028 25.1497 108.266 25.8713 108.266 26.7865C108.266 28.1593 107.764 29.2241 106.761 29.9809C105.776 30.7201 104.447 31.0897 102.775 31.0897Z" fill="#FAFEF1"/>
<path d="M109.861 30.7201V12.2401H113.187V19.2361H113.663C113.803 18.9545 114.023 18.6729 114.323 18.3913C114.622 18.1097 115.018 17.8809 115.511 17.7049C116.021 17.5113 116.663 17.4145 117.438 17.4145C118.459 17.4145 119.347 17.6521 120.104 18.1273C120.879 18.5849 121.477 19.2273 121.899 20.0545C122.322 20.8641 122.533 21.8145 122.533 22.9057V30.7201H119.207V23.1697C119.207 22.1841 118.96 21.4449 118.467 20.9521C117.992 20.4593 117.306 20.2129 116.408 20.2129C115.387 20.2129 114.595 20.5561 114.032 21.2425C113.469 21.9113 113.187 22.8529 113.187 24.0673V30.7201H109.861Z" fill="#FAFEF1"/>
<path d="M124.809 30.7201V17.6257H128.135V30.7201H124.809ZM126.472 16.0945C125.874 16.0945 125.363 15.9009 124.941 15.5137C124.536 15.1265 124.334 14.6161 124.334 13.9825C124.334 13.3489 124.536 12.8385 124.941 12.4513C125.363 12.0641 125.874 11.8705 126.472 11.8705C127.088 11.8705 127.599 12.0641 128.003 12.4513C128.408 12.8385 128.611 13.3489 128.611 13.9825C128.611 14.6161 128.408 15.1265 128.003 15.5137C127.599 15.9009 127.088 16.0945 126.472 16.0945Z" fill="#FAFEF1"/>
<path d="M132.666 30.7201V20.3713H129.34V17.6257H132.666V15.1969C132.666 14.2993 132.93 13.5865 133.458 13.0585C134.004 12.5129 134.708 12.2401 135.57 12.2401H139.002V14.9857H136.732C136.239 14.9857 135.993 15.2497 135.993 15.7777V17.6257H139.425V20.3713H135.993V30.7201H132.666Z" fill="#FAFEF1"/>
<path d="M145.438 30.7201C144.576 30.7201 143.872 30.4561 143.326 29.9281C142.798 29.3825 142.534 28.6609 142.534 27.7633V20.3713H139.26V17.6257H142.534V13.5601H145.86V17.6257H149.451V20.3713H145.86V27.1825C145.86 27.7105 146.107 27.9745 146.6 27.9745H149.134V30.7201H145.438Z" fill="#FAFEF1"/>
</svg>
