<svg width="39" height="39" viewBox="0 0 39 39" fill="none" xmlns="http://www.w3.org/2000/svg">
<path d="M24.6571 1.5071L20.9428 0.511841L17.8127 12.1935L14.9868 1.64722L11.2724 2.64248L14.3257 14.037L6.72082 6.4322L4.00174 9.15128L12.3433 17.4929L1.95521 14.7094L0.959961 18.4237L12.3102 21.465C12.1803 20.9045 12.1115 20.3205 12.1115 19.7204C12.1115 15.4729 15.5548 12.0297 19.8023 12.0297C24.0498 12.0297 27.493 15.4729 27.493 19.7204C27.493 20.3166 27.4251 20.897 27.2968 21.4542L37.6121 24.2182L38.6073 20.5039L27.2119 17.4505L37.6006 14.6668L36.6053 10.9525L25.2104 14.0057L32.8152 6.40098L30.0961 3.6819L21.8703 11.9078L24.6571 1.5071Z" fill="#FAFEF1"/>
<path d="M27.2859 21.4975C26.9675 22.8438 26.2951 24.0533 25.3727 25.0223L32.8456 32.4954L35.5647 29.7763L27.2859 21.4975Z" fill="#FAFEF1"/>
<path d="M25.2972 25.1005C24.3636 26.054 23.1838 26.7656 21.8607 27.1323L24.58 37.2807L28.2942 36.2854L25.2972 25.1005Z" fill="#FAFEF1"/>
<path d="M21.7219 27.1694C21.1081 27.3273 20.4647 27.4111 19.8016 27.4111C19.0912 27.4111 18.4034 27.3148 17.7503 27.1345L15.0286 37.2922L18.7429 38.2874L21.7219 27.1694Z" fill="#FAFEF1"/>
<path d="M17.619 27.0971C16.3161 26.7121 15.1572 25.9915 14.2427 25.0352L6.75133 32.5265L9.47041 35.2456L17.619 27.0971Z" fill="#FAFEF1"/>
<path d="M14.181 24.9689C13.2821 24.0066 12.6273 22.8133 12.3157 21.4877L1.96672 24.2607L2.96196 27.975L14.181 24.9689Z" fill="#FAFEF1"/>
</svg>
