<svg width="120" height="35" viewBox="0 0 120 35" fill="none" xmlns="http://www.w3.org/2000/svg">
<path d="M6.27192 23.2077H15.8302V27.0092H0.696289V23.9318L10.1459 12.3823H0.985932V8.58069H15.7215V11.6581L6.27192 23.2077Z" fill="#092B1A"/>
<path d="M36.6627 1.66545H41.5504L31.9198 27.0092H26.851L17.2204 1.66545H22.1081L29.3854 21.6871L36.6627 1.66545Z" fill="#092B1A"/>
<path d="M59.6758 19.1165H45.9539C46.4246 22.0491 48.3435 23.6784 51.3847 23.6784C53.4846 23.6784 55.1863 22.918 56.5259 21.3612L59.1689 23.968C57.431 26.2489 54.607 27.5161 51.2399 27.5161C45.3746 27.5161 41.4644 23.6421 41.4644 17.8855C41.4644 12.165 45.266 8.07381 50.8054 8.07381C56.1276 8.07381 59.7844 11.803 59.7844 17.4148C59.7844 17.9579 59.7482 18.5372 59.6758 19.1165ZM45.9539 16.1114H55.3673C55.1863 13.396 53.4846 11.9116 50.8416 11.9116C48.1262 11.9116 46.4246 13.4684 45.9539 16.1114Z" fill="#092B1A"/>
<path d="M75.4178 8.50828V12.6357C74.6575 12.5271 73.9696 12.4547 73.3903 12.4547C70.0956 12.4547 68.4663 14.1563 68.4663 17.9217V27.0092H64.0493V8.58069H68.3939V11.6581C69.2991 9.52203 71.3266 8.25484 73.8247 8.25484C74.404 8.25484 74.9471 8.32725 75.4178 8.50828Z" fill="#092B1A"/>
<path d="M78.4967 2.75161C78.4967 1.15857 79.619 0 81.3207 0C82.9499 0 84.1085 1.15857 84.1085 2.75161C84.1085 4.34465 82.9499 5.50322 81.3207 5.50322C79.619 5.50322 78.4967 4.34465 78.4967 2.75161ZM79.1122 27.0092V8.58069H83.5292V27.0092H79.1122Z" fill="#092B1A"/>
<path d="M90.6758 27.0092V12.4547H87.1277V8.58069H90.6758V6.19113C90.6758 2.24474 92.7033 0.181027 97.0842 0.181027C98.1341 0.181027 99.1479 0.289644 100.089 0.506876V4.23604C99.2565 4.09121 98.5324 4.0188 97.9169 4.0188C95.9256 4.0188 95.0929 4.77912 95.0929 6.55318V8.58069H100.053V12.4547H95.0929V27.0092H90.6758Z" fill="#092B1A"/>
<path d="M115.419 8.58069H119.8V25.1628C119.8 31.3539 116.36 34.7572 110.278 34.7572C107.128 34.7572 104.232 33.8159 102.494 32.1866L104.485 28.9643C106.042 30.1591 108.033 30.8108 110.025 30.8108C113.464 30.8108 115.455 28.8195 115.455 25.1628V23.5697C114.405 25.5972 112.161 26.8282 109.445 26.8282C105.499 26.8282 103.073 24.33 103.073 19.8768V8.58069H107.49V18.7544C107.49 21.5422 108.612 22.8094 110.966 22.8094C113.681 22.8094 115.419 21.144 115.419 18.501V8.58069Z" fill="#092B1A"/>
</svg>
